<?xml version="1.0" standalone="no"?>
<!DOCTYPE svg PUBLIC "-//W3C//DTD SVG 20010904//EN"
 "http://www.w3.org/TR/2001/REC-SVG-20010904/DTD/svg10.dtd">
<svg version="1.0" xmlns="http://www.w3.org/2000/svg"
 width="504.000000pt" height="148.000000pt" viewBox="0 0 504.000000 148.000000"
 preserveAspectRatio="xMidYMid meet">

<g transform="translate(0.000000,148.000000) scale(0.100000,-0.100000)"
fill="#000000" stroke="none">
<path d="M3955 1176 c-40 -18 -69 -51 -97 -111 -20 -44 -23 -66 -23 -175 0
-109 3 -131 23 -175 42 -92 81 -118 227 -154 103 -26 115 -33 115 -72 0 -94
-156 -91 -248 4 -18 19 -51 67 -72 108 l-39 74 -1 -205 0 -204 43 42 c39 39
45 41 57 27 8 -9 37 -28 64 -43 64 -33 155 -36 201 -8 114 68 151 317 70 476
-38 75 -72 96 -206 126 -41 9 -86 23 -101 30 -38 19 -46 58 -21 92 18 24 27
27 76 27 72 -1 122 -34 192 -127 l50 -67 3 166 c1 91 0 168 -2 171 -3 2 -21
-9 -41 -27 -20 -17 -38 -31 -40 -31 -2 0 -21 11 -41 25 -64 44 -134 55 -189
31z"/>
<path d="M741 1169 c-42 -13 -118 -89 -154 -156 -63 -118 -87 -333 -52 -468
42 -160 159 -285 269 -285 108 0 220 120 263 281 21 82 21 241 -1 332 -31 131
-111 252 -191 288 -44 20 -82 22 -134 8z m103 -164 c40 -44 60 -135 60 -280 0
-226 -57 -339 -142 -280 -49 35 -79 221 -62 375 20 176 80 254 144 185z"/>
<path d="M2791 1169 c-42 -13 -118 -89 -154 -156 -63 -118 -87 -333 -52 -468
42 -160 159 -285 269 -285 108 0 220 120 263 281 21 82 21 241 -1 332 -31 131
-111 252 -191 288 -44 20 -82 22 -134 8z m103 -164 c40 -44 60 -135 60 -280 0
-226 -57 -339 -142 -280 -49 35 -79 221 -62 375 20 176 80 254 144 185z"/>
<path d="M150 1143 c0 -5 23 -48 50 -97 l50 -89 0 -236 c0 -244 -6 -282 -42
-289 -10 -2 -25 9 -35 24 -15 23 -18 48 -17 144 l0 117 -50 -20 c-28 -10 -54
-24 -57 -29 -28 -45 -15 -238 21 -308 57 -112 185 -131 263 -40 61 72 69 115
75 395 l5 250 48 86 c27 48 49 89 49 93 0 3 -81 6 -180 6 -99 0 -180 -3 -180
-7z"/>
<path d="M1100 1144 c0 -4 23 -46 50 -95 l50 -89 0 -236 0 -237 -50 -87 c-27
-48 -50 -90 -50 -94 0 -4 111 -6 248 -4 227 3 250 5 282 23 49 30 72 75 78
156 8 118 -32 205 -114 244 l-37 17 29 13 c40 17 82 65 94 106 22 75 6 170
-37 228 -43 56 -67 61 -318 61 -124 0 -225 -3 -225 -6z m414 -160 c19 -18 22
-114 6 -145 -9 -16 -22 -19 -85 -19 l-75 0 0 90 0 90 69 0 c50 0 74 -4 85 -16z
m16 -353 c16 -30 12 -133 -6 -159 -13 -19 -24 -22 -90 -22 l-74 0 0 100 0 100
80 0 c68 0 81 -3 90 -19z"/>
<path d="M1860 1144 c0 -4 23 -46 50 -95 l50 -89 0 -234 0 -233 -50 -89 c-27
-49 -50 -92 -50 -96 0 -5 77 -8 170 -8 94 0 170 1 170 3 0 2 -18 46 -40 97
-35 81 -40 104 -40 167 l0 73 85 0 85 0 0 -73 c0 -63 -5 -86 -40 -167 -22 -51
-40 -95 -40 -97 0 -2 77 -3 170 -3 94 0 170 3 170 8 0 4 -23 47 -50 96 l-50
89 0 233 0 234 50 89 c28 49 50 91 50 95 0 3 -76 6 -170 6 -93 0 -170 -1 -170
-3 0 -2 18 -45 40 -96 30 -70 40 -105 40 -147 l0 -54 -85 0 -85 0 0 54 c0 42
10 77 40 147 22 51 40 94 40 96 0 2 -76 3 -170 3 -93 0 -170 -3 -170 -6z"/>
<path d="M3181 1073 c23 -43 47 -84 53 -92 7 -9 13 -106 17 -260 6 -284 13
-314 88 -392 90 -92 233 -91 305 4 46 60 56 129 56 382 l0 230 55 99 c30 55
55 101 55 103 0 1 -65 3 -145 3 l-145 0 50 -100 50 -100 0 -197 c0 -212 -8
-262 -45 -299 -33 -33 -93 -33 -127 -1 -38 35 -48 103 -48 313 l0 184 50 100
50 100 -181 0 -180 0 42 -77z"/>
<path d="M4340 1144 c0 -4 23 -46 50 -95 l50 -89 0 -235 0 -235 -50 -89 c-27
-49 -50 -91 -50 -95 0 -3 133 -6 295 -6 l295 0 -1 203 0 202 -60 -117 -59
-118 -105 0 -105 0 0 95 0 95 58 0 59 0 39 -57 39 -57 3 179 c1 98 0 181 -4
184 -3 3 -22 -13 -42 -37 -36 -41 -39 -42 -94 -42 l-58 0 0 90 0 90 105 0 105
0 54 -107 55 -108 0 178 1 177 -290 0 c-159 0 -290 -3 -290 -6z"/>
</g>
</svg>
